<svg width="120px" height="120px" viewBox="0 0 120 120" version="1.1" xmlns="http://www.w3.org/2000/svg">
    <title>Blog Logo</title>
    <g stroke="none" strokeWidth="1" fill="none" fillRule="evenodd">
        <g fill="#000000" fillRule="nonzero">
            <g transform="translate(1.000000, 28.000000)">
                <path d="M116.636224,0 L1.36352845,0 C0.610364917,0 0,0.616586252 0,1.37742664 L0,55.4702229 C0,56.2310633 0.610364917,56.8476496 1.36352845,56.8476496 L17.7628091,56.8476496 C18.7752909,59.403903 20.3245072,61.7179797 22.3150108,63.6225851 C22.5785437,63.8747794 22.915955,64 23.2523746,64 C23.595488,64 23.9378576,63.870021 24.2011425,63.6120666 C24.7584538,63.0663552 24.7163083,62.1289537 24.1545346,61.5880007 C22.0358593,59.5484075 20.5035013,56.9658578 19.7220755,54.1163378 L14.3470464,34.7717581 C14.142765,33.9608294 14.6259499,33.1311177 15.4284484,32.9187436 C16.1273187,32.7334171 16.8437909,33.0780242 17.158642,33.705129 L20.1859231,43.9306434 C20.362686,44.5279457 20.9046265,44.9138756 21.4919354,44.9138756 C21.6210988,44.9138756 21.7527412,44.8950925 21.8831441,44.8557733 C22.6048226,44.637639 23.0146248,43.8702871 22.7989394,43.1415032 L17.8052024,26.2740375 C17.5932357,25.4661141 18.0669999,24.6323954 18.8662755,24.4110053 C19.6700135,24.1883631 20.5030054,24.6677076 20.7231533,25.4793875 C20.7261283,25.4901565 20.7291032,25.5011759 20.732574,25.5119449 L25.4129474,41.2246262 C25.607808,41.8787786 26.2466831,42.2892518 26.9170433,42.1903275 C27.5861639,42.0909023 28.0819924,41.5108805 28.0819924,40.8276769 L28.0819924,20.6010432 C28.0819924,20.548701 28.0847194,20.4971101 28.0896777,20.4462706 C28.1620687,19.7249999 28.8076374,19.1998247 29.5255971,19.1998247 L29.6607104,19.1998247 C30.3784222,19.1998247 31.0242389,19.7249999 31.0966298,20.4462706 C31.101836,20.4971101 31.1043152,20.5489515 31.1043152,20.6010432 L31.1043152,40.8444564 C31.1043152,41.563974 31.6249351,42.2063557 32.3339699,42.2747262 C33.1471287,42.3531143 33.8313721,41.7092299 33.8313721,40.903811 L33.8313721,21.9409037 C33.8313721,21.1650368 34.3819897,20.4728173 35.1435823,20.3738931 C36.0650796,20.2544326 36.8536949,20.9797103 36.8536949,21.8875597 L36.8539428,44.2857691 L36.8021287,47.3088449 C36.8021287,49.3158807 37.9269157,51.0434242 39.7433835,51.8373228 C41.6094342,52.6527594 43.7858735,52.1709105 45.2235283,50.7186019 L49.0059562,46.8976204 C49.2722162,46.6286466 49.6289648,46.4751261 50.0025716,46.4853942 C50.4227863,46.4886499 50.8122596,46.6779835 51.0802549,47.0140756 C51.5188152,47.5640445 51.4546054,48.3679607 50.9800975,48.8866245 L44.5975448,55.8629147 C42.1677371,58.5188437 38.9832784,60.494324 35.4348815,60.9751711 C34.6750243,61.0781024 34.1511815,61.7908581 34.268197,62.5521994 C34.3728168,63.2321473 34.9531841,63.7180032 35.6138756,63.7180032 C35.6835395,63.7180032 35.7541951,63.7124935 35.8253465,63.7014741 C39.8279223,63.0723658 43.5461404,61.0710901 46.2952617,58.066046 L47.4093884,56.8484009 L70.5898679,56.8484009 L71.7039946,58.066046 C74.4531158,61.0710901 78.1715819,63.0723658 82.1739098,63.7014741 C82.2450611,63.7124935 82.3154688,63.7180032 82.3853806,63.7180032 C83.0681365,63.7177528 83.665362,63.1988386 83.7399842,62.4828272 C83.8170855,61.7427734 83.2620055,61.0871183 82.534625,60.9699118 C79.1595202,60.4257031 76.0266277,58.7319692 73.706646,56.196252 L66.9844507,48.848307 C66.3844982,48.1929023 66.5158928,47.1064884 67.3657429,46.639666 C67.5571327,46.5344807 67.7750493,46.4876482 67.992966,46.4853942 C68.3675644,46.4813871 68.7280317,46.6298988 68.9930521,46.8976204 L72.8555563,50.7994944 C74.2793279,52.2380287 76.3199102,52.6477505 78.1805068,51.8696297 C80.0411033,51.091008 81.1968796,49.3436797 81.1966317,47.285053 L81.1453135,21.8878102 C81.1453135,20.9802112 81.9336808,20.2549335 82.8551782,20.3741435 C83.6167708,20.4728173 84.1673883,21.1650368 84.1673883,21.9406533 L84.1673883,40.8444564 C84.1673883,41.5637236 84.6877604,42.2063557 85.3967952,42.2747262 C86.209954,42.3533647 86.8944452,41.7092299 86.8944452,40.903811 L86.8944452,21.8873093 L86.8944452,20.6010432 C86.8944452,20.548701 86.8971723,20.4971101 86.9021306,20.4462706 C86.9745216,19.7249999 87.6200903,19.1998247 88.33805,19.1998247 L88.4734112,19.1998247 C89.191123,19.1998247 89.8369396,19.7249999 89.9093306,20.4462706 C89.9145368,20.4971101 89.917016,20.5489515 89.917016,20.6010432 L89.917016,40.7778391 C89.917016,41.412958 90.3211162,41.9989904 90.9294978,42.1592728 C91.654647,42.350109 92.3768213,41.928366 92.5860609,41.2246262 L97.2664343,25.5119449 L97.2694093,25.5019272 C97.4850947,24.7563638 98.2085085,24.2504725 98.9673741,24.3746914 C99.4297342,24.4503246 99.8187116,24.7243073 100.046049,25.1275176 C100.243637,25.4778849 100.295947,25.8846014 100.193806,26.273787 L95.2003168,43.1415032 C94.9846314,43.8702871 95.3944337,44.6378894 96.1158642,44.8557733 C96.2462671,44.8950925 96.3779096,44.9138756 96.5070729,44.9138756 C97.0941339,44.9138756 97.6363224,44.5279457 97.8130853,43.9306434 L100.839127,33.709136 C100.968786,33.4479258 101.169101,33.2287898 101.4247,33.0777737 C101.773268,32.8719111 102.180591,32.8155618 102.57056,32.9187436 C102.961025,33.0221758 103.288272,33.2728674 103.492057,33.6247373 C103.693859,33.9736019 103.750632,34.3805689 103.65221,34.7717581 L98.2769328,54.1165882 C97.4955071,56.9661083 95.9633969,59.5484075 93.8447216,61.5880007 C93.2822042,62.1294546 93.2405546,63.0671065 93.7988575,63.6130683 C94.0621424,63.8705219 94.4040162,64 94.7468816,64 C95.0833013,64 95.4207126,63.8747794 95.6842455,63.6225851 C97.6747491,61.7179797 99.2239653,59.4036525 100.236695,56.8476496 L116.636472,56.8476496 C117.389635,56.8476496 118,56.2310633 118,55.4702229 L118,1.37742664 C117.999752,0.616836693 117.389139,0 116.636224,0 Z M15.3471325,48.4829133 L7.5589059,48.4829133 L7.5589059,43.2286567 L13.8779926,43.2286567 L15.3416784,48.4631284 L15.3471325,48.4829133 Z M110.438367,40.4738035 L104.891533,40.4738035 L106.280597,35.5058012 C106.283076,35.4972862 106.285307,35.4890217 106.287291,35.4805067 C106.309851,35.393854 106.324726,35.3067005 106.341584,35.2195469 L110.438119,35.2195469 L110.438119,40.4738035 L110.438367,40.4738035 Z M110.438367,24.4533299 L102.725506,24.4533299 C102.642207,24.2174143 102.541058,23.9865075 102.415861,23.7643661 C102.405449,23.7460839 102.393053,23.7295548 102.382393,23.7112726 L102.382393,19.1998247 L110.438119,19.1998247 L110.438119,24.4533299 L110.438367,24.4533299 Z M110.438367,16.4449714 L99.8070597,16.4449714 L99.8070597,11.1899636 L110.438367,11.1899636 L110.438367,16.4449714 Z M97.0800028,16.4449714 L89.4120146,16.4449714 L89.4120146,11.1899636 L97.0800028,11.1899636 L97.0800028,16.4449714 Z M52.2350395,19.1998247 L52.2350395,24.4533299 L44.6047343,24.4533299 L44.6047343,19.1998247 L52.2350395,19.1998247 Z M62.5924016,19.1998247 L62.5924016,24.4533299 L54.9620964,24.4533299 L54.9620964,19.1998247 L62.5924016,19.1998247 Z M72.9497637,19.1998247 L72.9497637,24.4533299 L65.3194585,24.4533299 L65.3194585,19.1998247 L72.9497637,19.1998247 Z M60.3631566,32.4646937 L60.3631566,27.2079327 L68.7406754,27.2079327 L68.7406754,32.4646937 L60.3631566,32.4646937 Z M49.2585809,32.4646937 L49.2585809,27.2079327 L57.6360997,27.2079327 L57.6360997,32.4646937 L49.2585809,32.4646937 Z M39.5807518,32.4646937 L39.5807518,27.2079327 L46.531524,27.2079327 L46.531524,32.4646937 L39.5807518,32.4646937 Z M41.8776774,24.4533299 L39.5807518,24.4533299 L39.5807518,21.8873093 C39.5807518,20.8697667 39.2262344,19.9353705 38.6371901,19.1998247 L41.8776774,19.1998247 L41.8776774,24.4533299 Z M39.5807518,35.2195469 L41.8776774,35.2195469 L41.8776774,40.4738035 L39.5807518,40.4738035 L39.5807518,35.2195469 Z M44.6047343,35.2195469 L52.2350395,35.2195469 L52.2350395,40.4738035 L44.6047343,40.4738035 L44.6047343,35.2195469 Z M54.9620964,35.2195469 L62.5924016,35.2195469 L62.5924016,40.4738035 L54.9620964,40.4738035 L54.9620964,35.2195469 Z M65.3194585,35.2195469 L72.9497637,35.2195469 L72.9497637,40.4738035 L65.3194585,40.4738035 L65.3194585,35.2195469 Z M75.6768206,35.2195469 L78.4185045,35.2195469 L78.4185045,40.4738035 L75.6768206,40.4738035 L75.6768206,35.2195469 Z M71.4677323,32.4646937 L71.4677323,27.2079327 L78.4182566,27.2079327 L78.4182566,32.4646937 L71.4677323,32.4646937 Z M75.6768206,24.4533299 L75.6768206,19.1998247 L79.3620662,19.1998247 C78.7730219,19.9353705 78.4185045,20.8697667 78.4185045,21.8873093 L78.4185045,24.4533299 L75.6768206,24.4533299 Z M86.6849577,16.4449714 L79.0167216,16.4449714 L79.0167216,11.1899636 L86.6849577,11.1899636 L86.6849577,16.4449714 Z M76.2899126,16.4449714 L68.6219244,16.4449714 L68.6219244,11.1899636 L76.2899126,11.1899636 L76.2899126,16.4449714 Z M65.8948675,16.4449714 L58.2268794,16.4449714 L58.2268794,11.1899636 L65.8948675,11.1899636 L65.8948675,16.4449714 Z M55.4998225,16.4449714 L47.8318343,16.4449714 L47.8318343,11.1899636 L55.4998225,11.1899636 L55.4998225,16.4449714 Z M45.1047774,16.4449714 L37.4367892,16.4449714 L37.4367892,11.1899636 L45.1047774,11.1899636 L45.1047774,16.4449714 Z M34.7097323,16.4449714 L27.0417441,16.4449714 L27.0417441,11.1899636 L34.7097323,11.1899636 L34.7097323,16.4449714 Z M24.3146872,16.4449714 L16.6466991,16.4449714 L16.6466991,11.1899636 L24.3146872,11.1899636 L24.3146872,16.4449714 Z M13.9196422,16.4449714 L7.5589059,16.4449714 L7.5589059,11.1899636 L13.9196422,11.1899636 L13.9196422,16.4449714 Z M7.5589059,35.2195469 L11.6571766,35.2195469 C11.6742827,35.3067005 11.6891575,35.393854 11.7114698,35.4805067 C11.713701,35.4890217 11.7159323,35.4972862 11.7181635,35.5058012 L13.1072271,40.4738035 L7.5589059,40.4738035 L7.5589059,35.2195469 Z M14.7372634,30.2537987 C13.6422261,30.5435592 12.7244475,31.2467981 12.1530051,32.2340373 C12.1093722,32.3094201 12.0729288,32.3875578 12.0340063,32.4646937 L7.5589059,32.4646937 L7.5589059,27.2079327 L15.2353232,27.2079327 L16.0990565,30.1258232 C15.6468608,30.0952694 15.1884674,30.1343382 14.7372634,30.2537987 Z M18.1450929,21.7540746 C16.7590042,22.1380009 15.7247059,23.1795859 15.2754853,24.4530794 L7.5589059,24.4530794 L7.5589059,19.1995742 L18.9575079,19.1995742 L18.9575079,21.6138275 C18.6875293,21.6341132 18.4158152,21.6791926 18.1450929,21.7540746 Z M24.0856145,27.2081832 L25.3551834,27.2081832 L25.3551834,31.4701916 L24.0856145,27.2081832 Z M25.3551834,20.6010432 L25.3551834,24.4530794 L23.2558454,24.4530794 C22.9511588,23.5840485 22.39236,22.8670353 21.6848127,22.3706608 L21.6848127,19.1998247 L25.5931811,19.1998247 C25.4417055,19.6395995 25.3551834,20.109928 25.3551834,20.6010432 Z M68.0695715,54.0930467 L49.9296848,54.0930467 L52.5417095,51.238017 L65.4575468,51.238017 L68.0695715,54.0930467 Z M70.9213292,44.9491878 C70.1342015,44.154037 69.085772,43.7272852 67.9748682,43.73004 C66.8617332,43.7390559 65.8219808,44.1888483 65.0474966,44.9965212 C64.1292222,45.9544588 63.7588382,47.2497408 63.9328741,48.4829133 L54.0661343,48.4829133 C54.2401701,47.2494903 53.8697862,45.9542084 52.9512638,44.9962708 C52.1767797,44.1885979 51.1375231,43.7388055 50.024388,43.7297896 C48.9087739,43.7262834 47.8648069,44.1537866 47.0776791,44.9489374 L43.5796088,48.4829133 L39.8561845,48.4829133 C39.6459532,48.1493256 39.5291856,47.7571346 39.5291856,47.3323864 L39.5809997,44.3093105 L39.5809997,43.2286567 L78.4187524,43.2286567 L78.4187524,44.3333529 L78.4700707,47.308344 C78.4700707,47.7461152 78.3528072,48.145569 78.1413363,48.4829133 L74.4196474,48.4829133 L70.9213292,44.9491878 Z M92.6440729,27.2081832 L93.9136418,27.2081832 L92.6440729,31.4699412 L92.6440729,27.2081832 Z M94.7434108,24.4533299 L92.6440729,24.4533299 L92.6440729,20.6012937 C92.6440729,20.109928 92.5575508,19.6398499 92.4060752,19.2000751 L99.6553361,19.2000751 L99.6553361,21.7099969 C97.5661626,21.2376648 95.4549248,22.4245057 94.7434108,24.4533299 Z M103.261745,30.2537987 C102.810541,30.1343382 102.352148,30.0952694 101.899952,30.1260737 L102.763685,27.2081832 L110.438367,27.2081832 L110.438367,32.4649441 L105.96525,32.4649441 C105.926575,32.3878082 105.889884,32.3096706 105.846251,32.2342877 C105.274809,31.2470485 104.356782,30.5435592 103.261745,30.2537987 Z M104.121264,43.2286567 L110.438367,43.2286567 L110.438367,48.4829133 L102.652124,48.4829133 L102.655595,48.4698903 L104.121264,43.2286567 Z M115.272695,54.0930467 L101.113568,54.0930467 L101.896729,51.238017 L111.802143,51.238017 C112.555059,51.238017 113.165672,50.6214307 113.165672,49.8605903 L113.165672,9.81253693 C113.165672,9.05169654 112.555059,8.43511029 111.802143,8.43511029 L6.19537745,8.43511029 C5.44221392,8.43511029 4.831849,9.05169654 4.831849,9.81253693 L4.831849,49.8603399 C4.831849,50.6211803 5.44221392,51.2377665 6.19537745,51.2377665 L16.1025273,51.2377665 L16.8856884,54.0927963 L2.7270569,54.0930467 L2.7270569,2.75485328 L115.272695,2.75485328 L115.272695,54.0930467 Z" id="Shape"></path>
            </g>
        </g>
    </g>
</svg>
